<svg width="312" height="312" fill="none" xmlns="http://www.w3.org/2000/svg"><g filter="url(#prefix__filter0_dd_2_561)"><circle cx="156.5" cy="156.5" r="141.5" fill="#052727"/></g><g filter="url(#prefix__filter1_dd_2_561)"><circle cx="156" cy="156" r="118" fill="#036B52"/></g><path d="M67.965 193.884a19.079 19.079 0 01-3.506.366 9.558 9.558 0 01-3.447-.572c-1.088-.399-2.044-1.112-2.867-2.139-.824-1.028-1.425-2.481-1.802-4.359l-.263-1.305c-.09-.455-.184-.919-.28-1.394l-2.909-14.472-7.443 1.496-1.252-6.228 3.025-.608c1.028-.207 1.83-.409 2.408-.608.573-.218.964-.523 1.174-.914.209-.392.281-.952.218-1.679-.049-.752-.202-1.77-.46-3.055l-1.008-5.012 7.83-1.574 2.086 10.38 9.372-1.884 1.251 6.228-9.371 1.884 2.54 12.634.226 1.127.208 1.038c.294 1.463.709 2.603 1.244 3.422.534.818 1.464 1.094 2.789.827a8.634 8.634 0 001.743-.535c.55-.234.951-.438 1.204-.612l1.228 6.109c-.348.214-.864.462-1.548.743-.684.282-1.48.514-2.39.696zm13.096-3.249l-6.33-31.495 7.8-1.568 2.103 10.469-2.011-.645a14.97 14.97 0 01.322-4.076 10.771 10.771 0 011.491-3.632c.703-1.108 1.636-2.046 2.798-2.815 1.162-.768 2.554-1.315 4.175-1.641 1.285-.258 2.313-.362 3.084-.312.788.027 1.282.082 1.484.165l.013 7.434c-.226-.099-.665-.186-1.317-.26-.637-.098-1.46-.046-2.468.156-1.602.322-2.89.869-3.867 1.641-.96.749-1.663 1.651-2.11 2.708a9.299 9.299 0 00-.755 3.299 13.447 13.447 0 00.24 3.346l3.148 15.658-7.8 1.568zm30.888 7.862a19.23 19.23 0 01-2.521.352c-.748.068-1.218.08-1.412.037l-1.222-6.08c.281.067.734.069 1.358.005.649-.048 1.309-.14 1.982-.275 1.087-.218 1.983-.625 2.686-1.218a6.37 6.37 0 001.712-2.227c.423-.866.701-1.838.834-2.913l.283-2.125-17.257-29.669 8.156-1.64 12.725 24.78-.949.191 1.985-27.736 8.007-1.61-4.314 35.641c-.306 2.468-.838 4.683-1.596 6.646a11.551 11.551 0 01-3.543 4.939c-1.624 1.334-3.929 2.302-6.914 2.902zm39.179-21.328c-2.235.449-4.169.447-5.802-.006-1.614-.457-2.97-1.213-4.066-2.268a12.533 12.533 0 01-2.596-3.706 20.41 20.41 0 01-1.399-4.347l-.459-2.283-.483-2.403-2.974-14.798 7.829-1.574 2.73 13.583.412 2.046.369 1.839c.283 1.403.713 2.675 1.291 3.813.575 1.119 1.381 1.955 2.417 2.507 1.057.549 2.406.658 4.047.329 1.562-.314 2.815-1.039 3.759-2.175.94-1.156 1.575-2.497 1.906-4.024.351-1.531.381-3.018.091-4.462l3.027 1.243c.385 1.918.452 3.787.201 5.606a14.117 14.117 0 01-1.68 4.997 12.423 12.423 0 01-3.473 3.907c-1.435 1.049-3.151 1.775-5.147 2.176zm10.142-2.655l-6.331-31.496 7.8-1.568 6.33 31.496-7.799 1.568zm37.579-7.554l-2.807-13.968-.418-2.076-.334-1.661c-.286-1.423-.75-2.657-1.391-3.7-.626-1.068-1.499-1.828-2.619-2.282-1.1-.458-2.51-.514-4.23-.168-1.502.302-2.763.936-3.783 1.902-1.023.946-1.744 2.12-2.162 3.52-.402 1.377-.438 2.886-.108 4.527l-2.968-1.101c-.528-2.629-.404-5.082.373-7.357.793-2.298 2.08-4.233 3.862-5.805 1.783-1.572 3.9-2.604 6.351-3.097 2.531-.509 4.756-.442 6.675.201 1.938.639 3.525 1.78 4.761 3.425 1.255 1.64 2.129 3.686 2.622 6.137l.644 3.203.703 3.5 2.659 13.227-7.83 1.573zm-22.272 4.477l-6.331-31.496 7.8-1.567 6.331 31.495-7.8 1.568zm41.418-8.325l-5.079-25.268-6.673 1.342-1.251-6.228 6.672-1.342-.566-2.817c-.369-1.839-.446-3.5-.23-4.983.212-1.503.646-2.825 1.301-3.964a10.819 10.819 0 012.436-2.927 13.37 13.37 0 013.261-2.044 17.899 17.899 0 013.683-1.172c1.186-.239 2.099-.35 2.74-.335.661.011 1.11.044 1.347.099l1.264 6.288c-.253-.032-.687-.037-1.3-.017a9.452 9.452 0 00-1.904.198c-1.206.242-2.168.621-2.888 1.136-.723.495-1.241 1.092-1.552 1.793-.312.7-.476 1.473-.491 2.32a12.12 12.12 0 00.258 2.663l.441 2.195 8.719-1.753 1.252 6.228-8.719 1.753 5.079 25.267-7.8 1.568zm35.587-6.505c-3.322.668-6.387.564-9.196-.311-2.813-.895-5.189-2.434-7.129-4.615-1.92-2.185-3.201-4.869-3.84-8.053-.644-3.203-.499-6.163.436-8.881.951-2.742 2.552-5.059 4.805-6.952 2.252-1.892 5.039-3.172 8.361-3.84 3.321-.668 6.387-.564 9.196.312 2.809.875 5.171 2.395 7.087 4.561 1.932 2.142 3.22 4.814 3.864 8.017.64 3.183.487 6.155-.46 8.917-.927 2.757-2.514 5.092-4.763 7.005-2.253 1.892-5.04 3.173-8.361 3.84zm-1.282-6.376c1.799-.362 3.288-1.093 4.465-2.193 1.178-1.101 1.993-2.468 2.447-4.102.449-1.654.471-3.489.065-5.506-.405-2.016-1.13-3.681-2.176-4.993-1.049-1.331-2.327-2.268-3.835-2.808-1.507-.54-3.16-.63-4.96-.268-1.779.358-3.269 1.079-4.471 2.164-1.181 1.08-1.998 2.438-2.452 4.072-.457 1.614-.483 3.429-.078 5.446.406 2.016 1.135 3.701 2.188 5.052 1.05 1.332 2.33 2.278 3.841 2.838 1.532.556 3.187.656 4.966.298z" fill="#fff"/><circle cx="156" cy="156" r="155.5" stroke="#2FC18C"/><path d="M146.807 96.087l4.151 7.227a1.094 1.094 0 00.993.576 1.152 1.152 0 001.175-1.154l.022-14.454a1.152 1.152 0 00-1.611-1.095 1.146 1.146 0 00-.556.517l-4.174 7.204a1.116 1.116 0 00-.149.578c-.004.21.047.417.149.601zM142.507 98.546l4.172 7.205c.105.182.164.388.172.598a1.199 1.199 0 01-1.177 1.155 1.17 1.17 0 01-.579-.15l-12.518-7.247a1.124 1.124 0 01-.577-.983 1.17 1.17 0 01.721-1.106c.144-.06.299-.092.455-.092l8.325.043a1.118 1.118 0 011.006.577zM141.48 92.947h-8.324a1.16 1.16 0 01-1.116-.859 1.157 1.157 0 01.539-1.3l12.537-7.207a1.28 1.28 0 01.6-.172 1.183 1.183 0 011.156 1.176 1.19 1.19 0 01-.172.577l-4.215 7.206a1.136 1.136 0 01-1.005.579z" fill="#2FC18C"/><path d="M129 192l137-28" stroke="#2FC18C" stroke-width="3" stroke-linecap="round"/><defs><filter id="prefix__filter0_dd_2_561" x="12" y="13" width="289" height="289" filterUnits="userSpaceOnUse" color-interpolation-filters="sRGB"><feFlood flood-opacity="0" result="BackgroundImageFix"/><feColorMatrix in="SourceAlpha" values="0 0 0 0 0 0 0 0 0 0 0 0 0 0 0 0 0 0 127 0" result="hardAlpha"/><feOffset dy="1"/><feGaussianBlur stdDeviation="1.5"/><feColorMatrix values="0 0 0 0 0 0 0 0 0 0 0 0 0 0 0 0 0 0 0.1 0"/><feBlend in2="BackgroundImageFix" result="effect1_dropShadow_2_561"/><feColorMatrix in="SourceAlpha" values="0 0 0 0 0 0 0 0 0 0 0 0 0 0 0 0 0 0 127 0" result="hardAlpha"/><feOffset dy="1"/><feGaussianBlur stdDeviation="1"/><feColorMatrix values="0 0 0 0 0 0 0 0 0 0 0 0 0 0 0 0 0 0 0.06 0"/><feBlend in2="effect1_dropShadow_2_561" result="effect2_dropShadow_2_561"/><feBlend in="SourceGraphic" in2="effect2_dropShadow_2_561" result="shape"/></filter><filter id="prefix__filter1_dd_2_561" x="35" y="36" width="242" height="242" filterUnits="userSpaceOnUse" color-interpolation-filters="sRGB"><feFlood flood-opacity="0" result="BackgroundImageFix"/><feColorMatrix in="SourceAlpha" values="0 0 0 0 0 0 0 0 0 0 0 0 0 0 0 0 0 0 127 0" result="hardAlpha"/><feOffset dy="1"/><feGaussianBlur stdDeviation="1.5"/><feColorMatrix values="0 0 0 0 0 0 0 0 0 0 0 0 0 0 0 0 0 0 0.1 0"/><feBlend in2="BackgroundImageFix" result="effect1_dropShadow_2_561"/><feColorMatrix in="SourceAlpha" values="0 0 0 0 0 0 0 0 0 0 0 0 0 0 0 0 0 0 127 0" result="hardAlpha"/><feOffset dy="1"/><feGaussianBlur stdDeviation="1"/><feColorMatrix values="0 0 0 0 0 0 0 0 0 0 0 0 0 0 0 0 0 0 0.06 0"/><feBlend in2="effect1_dropShadow_2_561" result="effect2_dropShadow_2_561"/><feBlend in="SourceGraphic" in2="effect2_dropShadow_2_561" result="shape"/></filter></defs></svg>